%TF.GenerationSoftware,KiCad,Pcbnew,(5.1.6)-1*%
%TF.CreationDate,2020-08-19T17:28:43+02:00*%
%TF.ProjectId,spectrofluo,73706563-7472-46f6-966c-756f2e6b6963,rev?*%
%TF.SameCoordinates,Original*%
%TF.FileFunction,Legend,Bot*%
%TF.FilePolarity,Positive*%
%FSLAX46Y46*%
G04 Gerber Fmt 4.6, Leading zero omitted, Abs format (unit mm)*
G04 Created by KiCad (PCBNEW (5.1.6)-1) date 2020-08-19 17:28:43*
%MOMM*%
%LPD*%
G01*
G04 APERTURE LIST*
%ADD10C,0.127000*%
%ADD11C,0.304800*%
%ADD12C,0.203200*%
%ADD13C,0.100000*%
%ADD14C,0.015000*%
G04 APERTURE END LIST*
D10*
%TO.C,D1*%
X128827644Y-88900000D02*
G75*
G03*
X128827644Y-88900000I-557644J0D01*
G01*
D11*
X130067050Y-90805000D02*
G75*
G03*
X130067050Y-90805000I-50800J0D01*
G01*
D12*
X129670000Y-90600000D02*
X129670000Y-87200000D01*
X126870000Y-90600000D02*
X126870000Y-87200000D01*
D10*
G36*
X128270000Y-88900000D02*
G01*
X128828800Y-88900000D01*
X128828034Y-88929245D01*
X128825739Y-88958411D01*
X128821920Y-88987416D01*
X128816589Y-89016181D01*
X128809759Y-89044628D01*
X128801450Y-89072679D01*
X128791685Y-89100256D01*
X128780489Y-89127284D01*
X128767894Y-89153690D01*
X128753935Y-89179400D01*
X128738649Y-89204344D01*
X128722079Y-89228454D01*
X128704269Y-89251664D01*
X128685269Y-89273910D01*
X128665131Y-89295131D01*
X128643910Y-89315269D01*
X128621664Y-89334269D01*
X128598454Y-89352079D01*
X128574344Y-89368649D01*
X128549400Y-89383935D01*
X128523690Y-89397894D01*
X128497284Y-89410489D01*
X128470256Y-89421685D01*
X128442679Y-89431450D01*
X128414628Y-89439759D01*
X128386181Y-89446589D01*
X128357416Y-89451920D01*
X128328411Y-89455739D01*
X128299245Y-89458034D01*
X128270000Y-89458800D01*
X128270000Y-88900000D01*
G37*
X128270000Y-88900000D02*
X128828800Y-88900000D01*
X128828034Y-88929245D01*
X128825739Y-88958411D01*
X128821920Y-88987416D01*
X128816589Y-89016181D01*
X128809759Y-89044628D01*
X128801450Y-89072679D01*
X128791685Y-89100256D01*
X128780489Y-89127284D01*
X128767894Y-89153690D01*
X128753935Y-89179400D01*
X128738649Y-89204344D01*
X128722079Y-89228454D01*
X128704269Y-89251664D01*
X128685269Y-89273910D01*
X128665131Y-89295131D01*
X128643910Y-89315269D01*
X128621664Y-89334269D01*
X128598454Y-89352079D01*
X128574344Y-89368649D01*
X128549400Y-89383935D01*
X128523690Y-89397894D01*
X128497284Y-89410489D01*
X128470256Y-89421685D01*
X128442679Y-89431450D01*
X128414628Y-89439759D01*
X128386181Y-89446589D01*
X128357416Y-89451920D01*
X128328411Y-89455739D01*
X128299245Y-89458034D01*
X128270000Y-89458800D01*
X128270000Y-88900000D01*
D13*
%TO.C,U2*%
X122810000Y-89500000D02*
G75*
G03*
X122810000Y-89500000I-50000J0D01*
G01*
D10*
X123460000Y-87700000D02*
X123460000Y-87800000D01*
X125460000Y-87700000D02*
X123460000Y-87700000D01*
X125460000Y-87800000D02*
X125460000Y-87700000D01*
X125460000Y-90100000D02*
X125460000Y-90000000D01*
X123460000Y-90100000D02*
X125460000Y-90100000D01*
X123460000Y-90000000D02*
X123460000Y-90100000D01*
%TO.C,D1*%
D14*
X130451892Y-88545714D02*
X129971892Y-88545714D01*
X129971892Y-88660000D01*
X129994750Y-88728571D01*
X130040464Y-88774285D01*
X130086178Y-88797142D01*
X130177607Y-88820000D01*
X130246178Y-88820000D01*
X130337607Y-88797142D01*
X130383321Y-88774285D01*
X130429035Y-88728571D01*
X130451892Y-88660000D01*
X130451892Y-88545714D01*
X130451892Y-89277142D02*
X130451892Y-89002857D01*
X130451892Y-89140000D02*
X129971892Y-89140000D01*
X130040464Y-89094285D01*
X130086178Y-89048571D01*
X130109035Y-89002857D01*
%TO.C,U2*%
X124850420Y-90444739D02*
X124850420Y-90834015D01*
X124827521Y-90879812D01*
X124804623Y-90902710D01*
X124758825Y-90925609D01*
X124667231Y-90925609D01*
X124621434Y-90902710D01*
X124598535Y-90879812D01*
X124575637Y-90834015D01*
X124575637Y-90444739D01*
X124369550Y-90490536D02*
X124346651Y-90467638D01*
X124300854Y-90444739D01*
X124186361Y-90444739D01*
X124140564Y-90467638D01*
X124117665Y-90490536D01*
X124094767Y-90536333D01*
X124094767Y-90582130D01*
X124117665Y-90650826D01*
X124392448Y-90925609D01*
X124094767Y-90925609D01*
X122291968Y-86819819D02*
X122291968Y-87094287D01*
X122772287Y-86957053D02*
X122291968Y-86957053D01*
X122726542Y-87528862D02*
X122749414Y-87505989D01*
X122772287Y-87437372D01*
X122772287Y-87391628D01*
X122749414Y-87323011D01*
X122703670Y-87277266D01*
X122657925Y-87254394D01*
X122566436Y-87231521D01*
X122497819Y-87231521D01*
X122406329Y-87254394D01*
X122360585Y-87277266D01*
X122314840Y-87323011D01*
X122291968Y-87391628D01*
X122291968Y-87437372D01*
X122314840Y-87505989D01*
X122337712Y-87528862D01*
X122749414Y-87711840D02*
X122772287Y-87780457D01*
X122772287Y-87894819D01*
X122749414Y-87940564D01*
X122726542Y-87963436D01*
X122680797Y-87986308D01*
X122635053Y-87986308D01*
X122589308Y-87963436D01*
X122566436Y-87940564D01*
X122543563Y-87894819D01*
X122520691Y-87803330D01*
X122497819Y-87757585D01*
X122474946Y-87734713D01*
X122429202Y-87711840D01*
X122383457Y-87711840D01*
X122337712Y-87734713D01*
X122314840Y-87757585D01*
X122291968Y-87803330D01*
X122291968Y-87917691D01*
X122314840Y-87986308D01*
X122291968Y-88146415D02*
X122291968Y-88443755D01*
X122474946Y-88283649D01*
X122474946Y-88352266D01*
X122497819Y-88398010D01*
X122520691Y-88420883D01*
X122566436Y-88443755D01*
X122680797Y-88443755D01*
X122726542Y-88420883D01*
X122749414Y-88398010D01*
X122772287Y-88352266D01*
X122772287Y-88215032D01*
X122749414Y-88169287D01*
X122726542Y-88146415D01*
X122452074Y-88855457D02*
X122772287Y-88855457D01*
X122269095Y-88741095D02*
X122612180Y-88626734D01*
X122612180Y-88924074D01*
X122291968Y-89061308D02*
X122291968Y-89381521D01*
X122772287Y-89175670D01*
X122337712Y-89541627D02*
X122314840Y-89564499D01*
X122291968Y-89610244D01*
X122291968Y-89724606D01*
X122314840Y-89770350D01*
X122337712Y-89793223D01*
X122383457Y-89816095D01*
X122429202Y-89816095D01*
X122497819Y-89793223D01*
X122772287Y-89518755D01*
X122772287Y-89816095D01*
X122291968Y-90250669D02*
X122291968Y-90021946D01*
X122520691Y-89999074D01*
X122497819Y-90021946D01*
X122474946Y-90067691D01*
X122474946Y-90182052D01*
X122497819Y-90227797D01*
X122520691Y-90250669D01*
X122566436Y-90273542D01*
X122680797Y-90273542D01*
X122726542Y-90250669D01*
X122749414Y-90227797D01*
X122772287Y-90182052D01*
X122772287Y-90067691D01*
X122749414Y-90021946D01*
X122726542Y-89999074D01*
X122520691Y-90639499D02*
X122520691Y-90479393D01*
X122772287Y-90479393D02*
X122291968Y-90479393D01*
X122291968Y-90708116D01*
X122772287Y-90891095D02*
X122291968Y-90891095D01*
X122772287Y-91165563D01*
X122291968Y-91165563D01*
%TD*%
M02*
