%TF.GenerationSoftware,KiCad,Pcbnew,(5.1.6)-1*%
%TF.CreationDate,2020-08-19T17:28:43+02:00*%
%TF.ProjectId,spectrofluo,73706563-7472-46f6-966c-756f2e6b6963,rev?*%
%TF.SameCoordinates,Original*%
%TF.FileFunction,Soldermask,Top*%
%TF.FilePolarity,Negative*%
%FSLAX46Y46*%
G04 Gerber Fmt 4.6, Leading zero omitted, Abs format (unit mm)*
G04 Created by KiCad (PCBNEW (5.1.6)-1) date 2020-08-19 17:28:43*
%MOMM*%
%LPD*%
G01*
G04 APERTURE LIST*
%ADD10R,0.900000X1.000000*%
%ADD11R,1.000000X0.900000*%
%ADD12R,1.270000X0.770000*%
%ADD13C,2.600000*%
G04 APERTURE END LIST*
%TO.C,B_R1*%
G36*
G01*
X115578500Y-91140000D02*
X115053500Y-91140000D01*
G75*
G02*
X114791000Y-90877500I0J262500D01*
G01*
X114791000Y-90252500D01*
G75*
G02*
X115053500Y-89990000I262500J0D01*
G01*
X115578500Y-89990000D01*
G75*
G02*
X115841000Y-90252500I0J-262500D01*
G01*
X115841000Y-90877500D01*
G75*
G02*
X115578500Y-91140000I-262500J0D01*
G01*
G37*
G36*
G01*
X115578500Y-92890000D02*
X115053500Y-92890000D01*
G75*
G02*
X114791000Y-92627500I0J262500D01*
G01*
X114791000Y-92002500D01*
G75*
G02*
X115053500Y-91740000I262500J0D01*
G01*
X115578500Y-91740000D01*
G75*
G02*
X115841000Y-92002500I0J-262500D01*
G01*
X115841000Y-92627500D01*
G75*
G02*
X115578500Y-92890000I-262500J0D01*
G01*
G37*
%TD*%
%TO.C,C1*%
G36*
G01*
X125467500Y-82878000D02*
X125992500Y-82878000D01*
G75*
G02*
X126255000Y-83140500I0J-262500D01*
G01*
X126255000Y-83765500D01*
G75*
G02*
X125992500Y-84028000I-262500J0D01*
G01*
X125467500Y-84028000D01*
G75*
G02*
X125205000Y-83765500I0J262500D01*
G01*
X125205000Y-83140500D01*
G75*
G02*
X125467500Y-82878000I262500J0D01*
G01*
G37*
G36*
G01*
X125467500Y-84628000D02*
X125992500Y-84628000D01*
G75*
G02*
X126255000Y-84890500I0J-262500D01*
G01*
X126255000Y-85515500D01*
G75*
G02*
X125992500Y-85778000I-262500J0D01*
G01*
X125467500Y-85778000D01*
G75*
G02*
X125205000Y-85515500I0J262500D01*
G01*
X125205000Y-84890500D01*
G75*
G02*
X125467500Y-84628000I262500J0D01*
G01*
G37*
%TD*%
%TO.C,C2*%
G36*
G01*
X123452500Y-84395000D02*
X122927500Y-84395000D01*
G75*
G02*
X122665000Y-84132500I0J262500D01*
G01*
X122665000Y-83507500D01*
G75*
G02*
X122927500Y-83245000I262500J0D01*
G01*
X123452500Y-83245000D01*
G75*
G02*
X123715000Y-83507500I0J-262500D01*
G01*
X123715000Y-84132500D01*
G75*
G02*
X123452500Y-84395000I-262500J0D01*
G01*
G37*
G36*
G01*
X123452500Y-86145000D02*
X122927500Y-86145000D01*
G75*
G02*
X122665000Y-85882500I0J262500D01*
G01*
X122665000Y-85257500D01*
G75*
G02*
X122927500Y-84995000I262500J0D01*
G01*
X123452500Y-84995000D01*
G75*
G02*
X123715000Y-85257500I0J-262500D01*
G01*
X123715000Y-85882500D01*
G75*
G02*
X123452500Y-86145000I-262500J0D01*
G01*
G37*
%TD*%
%TO.C,G_R1*%
G36*
G01*
X113546500Y-92890000D02*
X113021500Y-92890000D01*
G75*
G02*
X112759000Y-92627500I0J262500D01*
G01*
X112759000Y-92002500D01*
G75*
G02*
X113021500Y-91740000I262500J0D01*
G01*
X113546500Y-91740000D01*
G75*
G02*
X113809000Y-92002500I0J-262500D01*
G01*
X113809000Y-92627500D01*
G75*
G02*
X113546500Y-92890000I-262500J0D01*
G01*
G37*
G36*
G01*
X113546500Y-91140000D02*
X113021500Y-91140000D01*
G75*
G02*
X112759000Y-90877500I0J262500D01*
G01*
X112759000Y-90252500D01*
G75*
G02*
X113021500Y-89990000I262500J0D01*
G01*
X113546500Y-89990000D01*
G75*
G02*
X113809000Y-90252500I0J-262500D01*
G01*
X113809000Y-90877500D01*
G75*
G02*
X113546500Y-91140000I-262500J0D01*
G01*
G37*
%TD*%
%TO.C,J1*%
G36*
G01*
X117358000Y-99083000D02*
X117358000Y-104133000D01*
G75*
G02*
X117083000Y-104408000I-275000J0D01*
G01*
X116533000Y-104408000D01*
G75*
G02*
X116258000Y-104133000I0J275000D01*
G01*
X116258000Y-99083000D01*
G75*
G02*
X116533000Y-98808000I275000J0D01*
G01*
X117083000Y-98808000D01*
G75*
G02*
X117358000Y-99083000I0J-275000D01*
G01*
G37*
G36*
G01*
X115358000Y-99083000D02*
X115358000Y-104133000D01*
G75*
G02*
X115083000Y-104408000I-275000J0D01*
G01*
X114533000Y-104408000D01*
G75*
G02*
X114258000Y-104133000I0J275000D01*
G01*
X114258000Y-99083000D01*
G75*
G02*
X114533000Y-98808000I275000J0D01*
G01*
X115083000Y-98808000D01*
G75*
G02*
X115358000Y-99083000I0J-275000D01*
G01*
G37*
G36*
G01*
X113358000Y-99083000D02*
X113358000Y-104133000D01*
G75*
G02*
X113083000Y-104408000I-275000J0D01*
G01*
X112533000Y-104408000D01*
G75*
G02*
X112258000Y-104133000I0J275000D01*
G01*
X112258000Y-99083000D01*
G75*
G02*
X112533000Y-98808000I275000J0D01*
G01*
X113083000Y-98808000D01*
G75*
G02*
X113358000Y-99083000I0J-275000D01*
G01*
G37*
G36*
G01*
X120058000Y-102573625D02*
X120058000Y-105142375D01*
G75*
G02*
X119792375Y-105408000I-265625J0D01*
G01*
X118623625Y-105408000D01*
G75*
G02*
X118358000Y-105142375I0J265625D01*
G01*
X118358000Y-102573625D01*
G75*
G02*
X118623625Y-102308000I265625J0D01*
G01*
X119792375Y-102308000D01*
G75*
G02*
X120058000Y-102573625I0J-265625D01*
G01*
G37*
G36*
G01*
X111258000Y-102573625D02*
X111258000Y-105142375D01*
G75*
G02*
X110992375Y-105408000I-265625J0D01*
G01*
X109823625Y-105408000D01*
G75*
G02*
X109558000Y-105142375I0J265625D01*
G01*
X109558000Y-102573625D01*
G75*
G02*
X109823625Y-102308000I265625J0D01*
G01*
X110992375Y-102308000D01*
G75*
G02*
X111258000Y-102573625I0J-265625D01*
G01*
G37*
%TD*%
%TO.C,J2*%
G36*
G01*
X137106000Y-99083000D02*
X137106000Y-104133000D01*
G75*
G02*
X136831000Y-104408000I-275000J0D01*
G01*
X136281000Y-104408000D01*
G75*
G02*
X136006000Y-104133000I0J275000D01*
G01*
X136006000Y-99083000D01*
G75*
G02*
X136281000Y-98808000I275000J0D01*
G01*
X136831000Y-98808000D01*
G75*
G02*
X137106000Y-99083000I0J-275000D01*
G01*
G37*
G36*
G01*
X135106000Y-99083000D02*
X135106000Y-104133000D01*
G75*
G02*
X134831000Y-104408000I-275000J0D01*
G01*
X134281000Y-104408000D01*
G75*
G02*
X134006000Y-104133000I0J275000D01*
G01*
X134006000Y-99083000D01*
G75*
G02*
X134281000Y-98808000I275000J0D01*
G01*
X134831000Y-98808000D01*
G75*
G02*
X135106000Y-99083000I0J-275000D01*
G01*
G37*
G36*
G01*
X133106000Y-99083000D02*
X133106000Y-104133000D01*
G75*
G02*
X132831000Y-104408000I-275000J0D01*
G01*
X132281000Y-104408000D01*
G75*
G02*
X132006000Y-104133000I0J275000D01*
G01*
X132006000Y-99083000D01*
G75*
G02*
X132281000Y-98808000I275000J0D01*
G01*
X132831000Y-98808000D01*
G75*
G02*
X133106000Y-99083000I0J-275000D01*
G01*
G37*
G36*
G01*
X131106000Y-99083000D02*
X131106000Y-104133000D01*
G75*
G02*
X130831000Y-104408000I-275000J0D01*
G01*
X130281000Y-104408000D01*
G75*
G02*
X130006000Y-104133000I0J275000D01*
G01*
X130006000Y-99083000D01*
G75*
G02*
X130281000Y-98808000I275000J0D01*
G01*
X130831000Y-98808000D01*
G75*
G02*
X131106000Y-99083000I0J-275000D01*
G01*
G37*
G36*
G01*
X129106000Y-99083000D02*
X129106000Y-104133000D01*
G75*
G02*
X128831000Y-104408000I-275000J0D01*
G01*
X128281000Y-104408000D01*
G75*
G02*
X128006000Y-104133000I0J275000D01*
G01*
X128006000Y-99083000D01*
G75*
G02*
X128281000Y-98808000I275000J0D01*
G01*
X128831000Y-98808000D01*
G75*
G02*
X129106000Y-99083000I0J-275000D01*
G01*
G37*
G36*
G01*
X127106000Y-99083000D02*
X127106000Y-104133000D01*
G75*
G02*
X126831000Y-104408000I-275000J0D01*
G01*
X126281000Y-104408000D01*
G75*
G02*
X126006000Y-104133000I0J275000D01*
G01*
X126006000Y-99083000D01*
G75*
G02*
X126281000Y-98808000I275000J0D01*
G01*
X126831000Y-98808000D01*
G75*
G02*
X127106000Y-99083000I0J-275000D01*
G01*
G37*
G36*
G01*
X125106000Y-99083000D02*
X125106000Y-104133000D01*
G75*
G02*
X124831000Y-104408000I-275000J0D01*
G01*
X124281000Y-104408000D01*
G75*
G02*
X124006000Y-104133000I0J275000D01*
G01*
X124006000Y-99083000D01*
G75*
G02*
X124281000Y-98808000I275000J0D01*
G01*
X124831000Y-98808000D01*
G75*
G02*
X125106000Y-99083000I0J-275000D01*
G01*
G37*
G36*
G01*
X139806000Y-102573625D02*
X139806000Y-105142375D01*
G75*
G02*
X139540375Y-105408000I-265625J0D01*
G01*
X138371625Y-105408000D01*
G75*
G02*
X138106000Y-105142375I0J265625D01*
G01*
X138106000Y-102573625D01*
G75*
G02*
X138371625Y-102308000I265625J0D01*
G01*
X139540375Y-102308000D01*
G75*
G02*
X139806000Y-102573625I0J-265625D01*
G01*
G37*
G36*
G01*
X123006000Y-102573625D02*
X123006000Y-105142375D01*
G75*
G02*
X122740375Y-105408000I-265625J0D01*
G01*
X121571625Y-105408000D01*
G75*
G02*
X121306000Y-105142375I0J265625D01*
G01*
X121306000Y-102573625D01*
G75*
G02*
X121571625Y-102308000I265625J0D01*
G01*
X122740375Y-102308000D01*
G75*
G02*
X123006000Y-102573625I0J-265625D01*
G01*
G37*
%TD*%
%TO.C,J3*%
G36*
G01*
X111766000Y-88115000D02*
X111766000Y-83065000D01*
G75*
G02*
X112041000Y-82790000I275000J0D01*
G01*
X112591000Y-82790000D01*
G75*
G02*
X112866000Y-83065000I0J-275000D01*
G01*
X112866000Y-88115000D01*
G75*
G02*
X112591000Y-88390000I-275000J0D01*
G01*
X112041000Y-88390000D01*
G75*
G02*
X111766000Y-88115000I0J275000D01*
G01*
G37*
G36*
G01*
X113766000Y-88115000D02*
X113766000Y-83065000D01*
G75*
G02*
X114041000Y-82790000I275000J0D01*
G01*
X114591000Y-82790000D01*
G75*
G02*
X114866000Y-83065000I0J-275000D01*
G01*
X114866000Y-88115000D01*
G75*
G02*
X114591000Y-88390000I-275000J0D01*
G01*
X114041000Y-88390000D01*
G75*
G02*
X113766000Y-88115000I0J275000D01*
G01*
G37*
G36*
G01*
X115766000Y-88115000D02*
X115766000Y-83065000D01*
G75*
G02*
X116041000Y-82790000I275000J0D01*
G01*
X116591000Y-82790000D01*
G75*
G02*
X116866000Y-83065000I0J-275000D01*
G01*
X116866000Y-88115000D01*
G75*
G02*
X116591000Y-88390000I-275000J0D01*
G01*
X116041000Y-88390000D01*
G75*
G02*
X115766000Y-88115000I0J275000D01*
G01*
G37*
G36*
G01*
X117766000Y-88115000D02*
X117766000Y-83065000D01*
G75*
G02*
X118041000Y-82790000I275000J0D01*
G01*
X118591000Y-82790000D01*
G75*
G02*
X118866000Y-83065000I0J-275000D01*
G01*
X118866000Y-88115000D01*
G75*
G02*
X118591000Y-88390000I-275000J0D01*
G01*
X118041000Y-88390000D01*
G75*
G02*
X117766000Y-88115000I0J275000D01*
G01*
G37*
G36*
G01*
X109066000Y-84624375D02*
X109066000Y-82055625D01*
G75*
G02*
X109331625Y-81790000I265625J0D01*
G01*
X110500375Y-81790000D01*
G75*
G02*
X110766000Y-82055625I0J-265625D01*
G01*
X110766000Y-84624375D01*
G75*
G02*
X110500375Y-84890000I-265625J0D01*
G01*
X109331625Y-84890000D01*
G75*
G02*
X109066000Y-84624375I0J265625D01*
G01*
G37*
G36*
G01*
X119866000Y-84624375D02*
X119866000Y-82055625D01*
G75*
G02*
X120131625Y-81790000I265625J0D01*
G01*
X121300375Y-81790000D01*
G75*
G02*
X121566000Y-82055625I0J-265625D01*
G01*
X121566000Y-84624375D01*
G75*
G02*
X121300375Y-84890000I-265625J0D01*
G01*
X120131625Y-84890000D01*
G75*
G02*
X119866000Y-84624375I0J265625D01*
G01*
G37*
%TD*%
D10*
%TO.C,Q2*%
X124648000Y-92726000D03*
X122748000Y-92726000D03*
X123698000Y-94726000D03*
%TD*%
D11*
%TO.C,Q3*%
X131080000Y-87696000D03*
X131080000Y-89596000D03*
X133080000Y-88646000D03*
%TD*%
D10*
%TO.C,Q4*%
X127508000Y-94726000D03*
X126558000Y-92726000D03*
X128458000Y-92726000D03*
%TD*%
%TO.C,R1*%
G36*
G01*
X136218000Y-82558500D02*
X136218000Y-82033500D01*
G75*
G02*
X136480500Y-81771000I262500J0D01*
G01*
X137105500Y-81771000D01*
G75*
G02*
X137368000Y-82033500I0J-262500D01*
G01*
X137368000Y-82558500D01*
G75*
G02*
X137105500Y-82821000I-262500J0D01*
G01*
X136480500Y-82821000D01*
G75*
G02*
X136218000Y-82558500I0J262500D01*
G01*
G37*
G36*
G01*
X137968000Y-82558500D02*
X137968000Y-82033500D01*
G75*
G02*
X138230500Y-81771000I262500J0D01*
G01*
X138855500Y-81771000D01*
G75*
G02*
X139118000Y-82033500I0J-262500D01*
G01*
X139118000Y-82558500D01*
G75*
G02*
X138855500Y-82821000I-262500J0D01*
G01*
X138230500Y-82821000D01*
G75*
G02*
X137968000Y-82558500I0J262500D01*
G01*
G37*
%TD*%
%TO.C,R2*%
G36*
G01*
X137968000Y-95512500D02*
X137968000Y-94987500D01*
G75*
G02*
X138230500Y-94725000I262500J0D01*
G01*
X138855500Y-94725000D01*
G75*
G02*
X139118000Y-94987500I0J-262500D01*
G01*
X139118000Y-95512500D01*
G75*
G02*
X138855500Y-95775000I-262500J0D01*
G01*
X138230500Y-95775000D01*
G75*
G02*
X137968000Y-95512500I0J262500D01*
G01*
G37*
G36*
G01*
X136218000Y-95512500D02*
X136218000Y-94987500D01*
G75*
G02*
X136480500Y-94725000I262500J0D01*
G01*
X137105500Y-94725000D01*
G75*
G02*
X137368000Y-94987500I0J-262500D01*
G01*
X137368000Y-95512500D01*
G75*
G02*
X137105500Y-95775000I-262500J0D01*
G01*
X136480500Y-95775000D01*
G75*
G02*
X136218000Y-95512500I0J262500D01*
G01*
G37*
%TD*%
%TO.C,R3*%
G36*
G01*
X111813000Y-95876500D02*
X111813000Y-96401500D01*
G75*
G02*
X111550500Y-96664000I-262500J0D01*
G01*
X110925500Y-96664000D01*
G75*
G02*
X110663000Y-96401500I0J262500D01*
G01*
X110663000Y-95876500D01*
G75*
G02*
X110925500Y-95614000I262500J0D01*
G01*
X111550500Y-95614000D01*
G75*
G02*
X111813000Y-95876500I0J-262500D01*
G01*
G37*
G36*
G01*
X110063000Y-95876500D02*
X110063000Y-96401500D01*
G75*
G02*
X109800500Y-96664000I-262500J0D01*
G01*
X109175500Y-96664000D01*
G75*
G02*
X108913000Y-96401500I0J262500D01*
G01*
X108913000Y-95876500D01*
G75*
G02*
X109175500Y-95614000I262500J0D01*
G01*
X109800500Y-95614000D01*
G75*
G02*
X110063000Y-95876500I0J-262500D01*
G01*
G37*
%TD*%
%TO.C,R4*%
G36*
G01*
X130039500Y-94026000D02*
X130564500Y-94026000D01*
G75*
G02*
X130827000Y-94288500I0J-262500D01*
G01*
X130827000Y-94913500D01*
G75*
G02*
X130564500Y-95176000I-262500J0D01*
G01*
X130039500Y-95176000D01*
G75*
G02*
X129777000Y-94913500I0J262500D01*
G01*
X129777000Y-94288500D01*
G75*
G02*
X130039500Y-94026000I262500J0D01*
G01*
G37*
G36*
G01*
X130039500Y-92276000D02*
X130564500Y-92276000D01*
G75*
G02*
X130827000Y-92538500I0J-262500D01*
G01*
X130827000Y-93163500D01*
G75*
G02*
X130564500Y-93426000I-262500J0D01*
G01*
X130039500Y-93426000D01*
G75*
G02*
X129777000Y-93163500I0J262500D01*
G01*
X129777000Y-92538500D01*
G75*
G02*
X130039500Y-92276000I262500J0D01*
G01*
G37*
%TD*%
%TO.C,R5*%
G36*
G01*
X131817500Y-92276000D02*
X132342500Y-92276000D01*
G75*
G02*
X132605000Y-92538500I0J-262500D01*
G01*
X132605000Y-93163500D01*
G75*
G02*
X132342500Y-93426000I-262500J0D01*
G01*
X131817500Y-93426000D01*
G75*
G02*
X131555000Y-93163500I0J262500D01*
G01*
X131555000Y-92538500D01*
G75*
G02*
X131817500Y-92276000I262500J0D01*
G01*
G37*
G36*
G01*
X131817500Y-94026000D02*
X132342500Y-94026000D01*
G75*
G02*
X132605000Y-94288500I0J-262500D01*
G01*
X132605000Y-94913500D01*
G75*
G02*
X132342500Y-95176000I-262500J0D01*
G01*
X131817500Y-95176000D01*
G75*
G02*
X131555000Y-94913500I0J262500D01*
G01*
X131555000Y-94288500D01*
G75*
G02*
X131817500Y-94026000I262500J0D01*
G01*
G37*
%TD*%
%TO.C,R6*%
G36*
G01*
X132579500Y-82878000D02*
X133104500Y-82878000D01*
G75*
G02*
X133367000Y-83140500I0J-262500D01*
G01*
X133367000Y-83765500D01*
G75*
G02*
X133104500Y-84028000I-262500J0D01*
G01*
X132579500Y-84028000D01*
G75*
G02*
X132317000Y-83765500I0J262500D01*
G01*
X132317000Y-83140500D01*
G75*
G02*
X132579500Y-82878000I262500J0D01*
G01*
G37*
G36*
G01*
X132579500Y-84628000D02*
X133104500Y-84628000D01*
G75*
G02*
X133367000Y-84890500I0J-262500D01*
G01*
X133367000Y-85515500D01*
G75*
G02*
X133104500Y-85778000I-262500J0D01*
G01*
X132579500Y-85778000D01*
G75*
G02*
X132317000Y-85515500I0J262500D01*
G01*
X132317000Y-84890500D01*
G75*
G02*
X132579500Y-84628000I262500J0D01*
G01*
G37*
%TD*%
%TO.C,R7*%
G36*
G01*
X128570000Y-88908500D02*
X128570000Y-88383500D01*
G75*
G02*
X128832500Y-88121000I262500J0D01*
G01*
X129457500Y-88121000D01*
G75*
G02*
X129720000Y-88383500I0J-262500D01*
G01*
X129720000Y-88908500D01*
G75*
G02*
X129457500Y-89171000I-262500J0D01*
G01*
X128832500Y-89171000D01*
G75*
G02*
X128570000Y-88908500I0J262500D01*
G01*
G37*
G36*
G01*
X126820000Y-88908500D02*
X126820000Y-88383500D01*
G75*
G02*
X127082500Y-88121000I262500J0D01*
G01*
X127707500Y-88121000D01*
G75*
G02*
X127970000Y-88383500I0J-262500D01*
G01*
X127970000Y-88908500D01*
G75*
G02*
X127707500Y-89171000I-262500J0D01*
G01*
X127082500Y-89171000D01*
G75*
G02*
X126820000Y-88908500I0J262500D01*
G01*
G37*
%TD*%
%TO.C,R8*%
G36*
G01*
X119680000Y-91448500D02*
X119680000Y-90923500D01*
G75*
G02*
X119942500Y-90661000I262500J0D01*
G01*
X120567500Y-90661000D01*
G75*
G02*
X120830000Y-90923500I0J-262500D01*
G01*
X120830000Y-91448500D01*
G75*
G02*
X120567500Y-91711000I-262500J0D01*
G01*
X119942500Y-91711000D01*
G75*
G02*
X119680000Y-91448500I0J262500D01*
G01*
G37*
G36*
G01*
X117930000Y-91448500D02*
X117930000Y-90923500D01*
G75*
G02*
X118192500Y-90661000I262500J0D01*
G01*
X118817500Y-90661000D01*
G75*
G02*
X119080000Y-90923500I0J-262500D01*
G01*
X119080000Y-91448500D01*
G75*
G02*
X118817500Y-91711000I-262500J0D01*
G01*
X118192500Y-91711000D01*
G75*
G02*
X117930000Y-91448500I0J262500D01*
G01*
G37*
%TD*%
%TO.C,R9*%
G36*
G01*
X117930000Y-93226500D02*
X117930000Y-92701500D01*
G75*
G02*
X118192500Y-92439000I262500J0D01*
G01*
X118817500Y-92439000D01*
G75*
G02*
X119080000Y-92701500I0J-262500D01*
G01*
X119080000Y-93226500D01*
G75*
G02*
X118817500Y-93489000I-262500J0D01*
G01*
X118192500Y-93489000D01*
G75*
G02*
X117930000Y-93226500I0J262500D01*
G01*
G37*
G36*
G01*
X119680000Y-93226500D02*
X119680000Y-92701500D01*
G75*
G02*
X119942500Y-92439000I262500J0D01*
G01*
X120567500Y-92439000D01*
G75*
G02*
X120830000Y-92701500I0J-262500D01*
G01*
X120830000Y-93226500D01*
G75*
G02*
X120567500Y-93489000I-262500J0D01*
G01*
X119942500Y-93489000D01*
G75*
G02*
X119680000Y-93226500I0J262500D01*
G01*
G37*
%TD*%
%TO.C,R_R1*%
G36*
G01*
X110989500Y-91740000D02*
X111514500Y-91740000D01*
G75*
G02*
X111777000Y-92002500I0J-262500D01*
G01*
X111777000Y-92627500D01*
G75*
G02*
X111514500Y-92890000I-262500J0D01*
G01*
X110989500Y-92890000D01*
G75*
G02*
X110727000Y-92627500I0J262500D01*
G01*
X110727000Y-92002500D01*
G75*
G02*
X110989500Y-91740000I262500J0D01*
G01*
G37*
G36*
G01*
X110989500Y-89990000D02*
X111514500Y-89990000D01*
G75*
G02*
X111777000Y-90252500I0J-262500D01*
G01*
X111777000Y-90877500D01*
G75*
G02*
X111514500Y-91140000I-262500J0D01*
G01*
X110989500Y-91140000D01*
G75*
G02*
X110727000Y-90877500I0J262500D01*
G01*
X110727000Y-90252500D01*
G75*
G02*
X110989500Y-89990000I262500J0D01*
G01*
G37*
%TD*%
D12*
%TO.C,U1*%
X130506000Y-83388000D03*
X130506000Y-85268000D03*
X128066000Y-85268000D03*
X128066000Y-84328000D03*
X128066000Y-83388000D03*
%TD*%
D13*
%TO.C,H1*%
X143510000Y-83820000D03*
%TD*%
%TO.C,H2*%
X105410000Y-83820000D03*
%TD*%
%TO.C,H3*%
X143510000Y-102870000D03*
%TD*%
%TO.C,H4*%
X105410000Y-102870000D03*
%TD*%
M02*
