%TF.GenerationSoftware,KiCad,Pcbnew,(5.1.6)-1*%
%TF.CreationDate,2020-08-19T17:28:43+02:00*%
%TF.ProjectId,spectrofluo,73706563-7472-46f6-966c-756f2e6b6963,rev?*%
%TF.SameCoordinates,Original*%
%TF.FileFunction,Copper,L2,Bot*%
%TF.FilePolarity,Positive*%
%FSLAX46Y46*%
G04 Gerber Fmt 4.6, Leading zero omitted, Abs format (unit mm)*
G04 Created by KiCad (PCBNEW (5.1.6)-1) date 2020-08-19 17:28:43*
%MOMM*%
%LPD*%
G01*
G04 APERTURE LIST*
%TA.AperFunction,SMDPad,CuDef*%
%ADD10R,2.400000X1.600000*%
%TD*%
%TA.AperFunction,ViaPad*%
%ADD11C,1.699999*%
%TD*%
%TA.AperFunction,ViaPad*%
%ADD12R,1.699999X1.699999*%
%TD*%
%TA.AperFunction,SMDPad,CuDef*%
%ADD13R,1.000000X0.400000*%
%TD*%
%TA.AperFunction,ViaPad*%
%ADD14C,0.800000*%
%TD*%
%TA.AperFunction,Conductor*%
%ADD15C,0.250000*%
%TD*%
%TA.AperFunction,Conductor*%
%ADD16C,0.500000*%
%TD*%
%TA.AperFunction,Conductor*%
%ADD17C,0.254000*%
%TD*%
G04 APERTURE END LIST*
D10*
%TO.P,D1,1*%
%TO.N,Net-(D1-Pad1)*%
X128270000Y-90325000D03*
%TO.P,D1,2*%
%TO.N,Net-(D1-Pad2)*%
X128270000Y-87475000D03*
%TD*%
D11*
%TO.N,GND*%
%TO.C,Q1*%
X137414000Y-91440000D03*
%TO.N,+5V*%
X137414000Y-88900000D03*
D12*
%TO.N,Net-(Q1-Pad1)*%
X137414000Y-86360000D03*
%TD*%
D13*
%TO.P,U2,5*%
%TO.N,N/C*%
X125210000Y-88900000D03*
%TO.P,U2,4*%
X125210000Y-88250000D03*
%TO.P,U2,6*%
%TO.N,/SDA_3V*%
X125210000Y-89550000D03*
%TO.P,U2,3*%
%TO.N,GND*%
X123710000Y-88250000D03*
%TO.P,U2,2*%
%TO.N,/SCL_3V*%
X123710000Y-88900000D03*
%TO.P,U2,1*%
%TO.N,+3V3*%
X123710000Y-89550000D03*
%TD*%
D14*
%TO.N,Net-(B_R1-Pad2)*%
X115316000Y-89190000D03*
X131535400Y-98460100D03*
%TO.N,+5V*%
X128270000Y-97790000D03*
X140970000Y-96520000D03*
%TO.N,GND*%
X120163797Y-87143797D03*
%TO.N,+3V3*%
X125144100Y-90587800D03*
%TO.N,Net-(D1-Pad1)*%
X134035200Y-90109700D03*
%TO.N,Net-(D1-Pad2)*%
X130730000Y-90639400D03*
%TO.N,/SCL_3V*%
X129377300Y-93726000D03*
X123397500Y-90587800D03*
%TO.N,/SDA_3V*%
X126264400Y-90698000D03*
%TD*%
D15*
%TO.N,Net-(B_R1-Pad2)*%
X131535400Y-98460100D02*
X131443200Y-98552300D01*
X131443200Y-98552300D02*
X124678300Y-98552300D01*
X124678300Y-98552300D02*
X115316000Y-89190000D01*
D16*
%TO.N,+5V*%
X140970000Y-96520000D02*
X129540000Y-96520000D01*
X129540000Y-96520000D02*
X128270000Y-97790000D01*
%TO.N,GND*%
X123710000Y-88250000D02*
X121270000Y-88250000D01*
X121270000Y-88250000D02*
X120163797Y-87143797D01*
D15*
%TO.N,+3V3*%
X123710000Y-89550000D02*
X124747800Y-90587800D01*
X124747800Y-90587800D02*
X125144100Y-90587800D01*
%TO.N,Net-(D1-Pad1)*%
X128270000Y-90325000D02*
X129795300Y-90325000D01*
X134035200Y-90109700D02*
X132737000Y-91407900D01*
X132737000Y-91407900D02*
X130472000Y-91407900D01*
X130472000Y-91407900D02*
X129795300Y-90731200D01*
X129795300Y-90731200D02*
X129795300Y-90325000D01*
%TO.N,Net-(D1-Pad2)*%
X128270000Y-87475000D02*
X128270000Y-88600300D01*
X128270000Y-88600300D02*
X129043100Y-88600300D01*
X129043100Y-88600300D02*
X130730000Y-90287200D01*
X130730000Y-90287200D02*
X130730000Y-90639400D01*
%TO.N,/SCL_3V*%
X123397500Y-90587800D02*
X126535700Y-93726000D01*
X126535700Y-93726000D02*
X129377300Y-93726000D01*
X123710000Y-88900000D02*
X122884700Y-88900000D01*
X122884700Y-88900000D02*
X122884700Y-90075000D01*
X122884700Y-90075000D02*
X123397500Y-90587800D01*
%TO.N,/SDA_3V*%
X125210000Y-89550000D02*
X126035300Y-89550000D01*
X126035300Y-89550000D02*
X126035300Y-90468900D01*
X126035300Y-90468900D02*
X126264400Y-90698000D01*
%TD*%
D17*
%TO.N,GND*%
G36*
X144121222Y-80733096D02*
G01*
X144709164Y-80910606D01*
X145251436Y-81198937D01*
X145727364Y-81587094D01*
X146118845Y-82060314D01*
X146410951Y-82600552D01*
X146592563Y-83187244D01*
X146660001Y-83828888D01*
X146660000Y-102837721D01*
X146596904Y-103481221D01*
X146419394Y-104069164D01*
X146131063Y-104611436D01*
X145742906Y-105087364D01*
X145269686Y-105478845D01*
X144729449Y-105770950D01*
X144142756Y-105952563D01*
X143501130Y-106020000D01*
X105442279Y-106020000D01*
X104798779Y-105956904D01*
X104210836Y-105779394D01*
X103668564Y-105491063D01*
X103192636Y-105102906D01*
X102801155Y-104629686D01*
X102509050Y-104089449D01*
X102327437Y-103502756D01*
X102260000Y-102861130D01*
X102260000Y-102684344D01*
X103525000Y-102684344D01*
X103525000Y-103055656D01*
X103597439Y-103419834D01*
X103739534Y-103762882D01*
X103945825Y-104071618D01*
X104208382Y-104334175D01*
X104517118Y-104540466D01*
X104860166Y-104682561D01*
X105224344Y-104755000D01*
X105595656Y-104755000D01*
X105959834Y-104682561D01*
X106302882Y-104540466D01*
X106611618Y-104334175D01*
X106874175Y-104071618D01*
X107080466Y-103762882D01*
X107222561Y-103419834D01*
X107295000Y-103055656D01*
X107295000Y-102684344D01*
X141625000Y-102684344D01*
X141625000Y-103055656D01*
X141697439Y-103419834D01*
X141839534Y-103762882D01*
X142045825Y-104071618D01*
X142308382Y-104334175D01*
X142617118Y-104540466D01*
X142960166Y-104682561D01*
X143324344Y-104755000D01*
X143695656Y-104755000D01*
X144059834Y-104682561D01*
X144402882Y-104540466D01*
X144711618Y-104334175D01*
X144974175Y-104071618D01*
X145180466Y-103762882D01*
X145322561Y-103419834D01*
X145395000Y-103055656D01*
X145395000Y-102684344D01*
X145322561Y-102320166D01*
X145180466Y-101977118D01*
X144974175Y-101668382D01*
X144711618Y-101405825D01*
X144402882Y-101199534D01*
X144059834Y-101057439D01*
X143695656Y-100985000D01*
X143324344Y-100985000D01*
X142960166Y-101057439D01*
X142617118Y-101199534D01*
X142308382Y-101405825D01*
X142045825Y-101668382D01*
X141839534Y-101977118D01*
X141697439Y-102320166D01*
X141625000Y-102684344D01*
X107295000Y-102684344D01*
X107222561Y-102320166D01*
X107080466Y-101977118D01*
X106874175Y-101668382D01*
X106611618Y-101405825D01*
X106302882Y-101199534D01*
X105959834Y-101057439D01*
X105595656Y-100985000D01*
X105224344Y-100985000D01*
X104860166Y-101057439D01*
X104517118Y-101199534D01*
X104208382Y-101405825D01*
X103945825Y-101668382D01*
X103739534Y-101977118D01*
X103597439Y-102320166D01*
X103525000Y-102684344D01*
X102260000Y-102684344D01*
X102260000Y-89088061D01*
X114281000Y-89088061D01*
X114281000Y-89291939D01*
X114320774Y-89491898D01*
X114398795Y-89680256D01*
X114512063Y-89849774D01*
X114656226Y-89993937D01*
X114825744Y-90107205D01*
X115014102Y-90185226D01*
X115214061Y-90225000D01*
X115276199Y-90225000D01*
X124114501Y-99063303D01*
X124138299Y-99092301D01*
X124254024Y-99187274D01*
X124386053Y-99257846D01*
X124529314Y-99301303D01*
X124640967Y-99312300D01*
X124640975Y-99312300D01*
X124678300Y-99315976D01*
X124715625Y-99312300D01*
X130947857Y-99312300D01*
X131045144Y-99377305D01*
X131233502Y-99455326D01*
X131433461Y-99495100D01*
X131637339Y-99495100D01*
X131837298Y-99455326D01*
X132025656Y-99377305D01*
X132195174Y-99264037D01*
X132339337Y-99119874D01*
X132452605Y-98950356D01*
X132530626Y-98761998D01*
X132570400Y-98562039D01*
X132570400Y-98358161D01*
X132530626Y-98158202D01*
X132452605Y-97969844D01*
X132339337Y-97800326D01*
X132195174Y-97656163D01*
X132025656Y-97542895D01*
X131837298Y-97464874D01*
X131637339Y-97425100D01*
X131433461Y-97425100D01*
X131233502Y-97464874D01*
X131045144Y-97542895D01*
X130875626Y-97656163D01*
X130739489Y-97792300D01*
X129519278Y-97792300D01*
X129906579Y-97405000D01*
X140431546Y-97405000D01*
X140479744Y-97437205D01*
X140668102Y-97515226D01*
X140868061Y-97555000D01*
X141071939Y-97555000D01*
X141271898Y-97515226D01*
X141460256Y-97437205D01*
X141629774Y-97323937D01*
X141773937Y-97179774D01*
X141887205Y-97010256D01*
X141965226Y-96821898D01*
X142005000Y-96621939D01*
X142005000Y-96418061D01*
X141965226Y-96218102D01*
X141887205Y-96029744D01*
X141773937Y-95860226D01*
X141629774Y-95716063D01*
X141460256Y-95602795D01*
X141271898Y-95524774D01*
X141071939Y-95485000D01*
X140868061Y-95485000D01*
X140668102Y-95524774D01*
X140479744Y-95602795D01*
X140431546Y-95635000D01*
X129583465Y-95635000D01*
X129539999Y-95630719D01*
X129496533Y-95635000D01*
X129496523Y-95635000D01*
X129366510Y-95647805D01*
X129199687Y-95698411D01*
X129045941Y-95780589D01*
X129045939Y-95780590D01*
X129045940Y-95780590D01*
X128944953Y-95863468D01*
X128944951Y-95863470D01*
X128911183Y-95891183D01*
X128883470Y-95924951D01*
X128024957Y-96783465D01*
X127968102Y-96794774D01*
X127779744Y-96872795D01*
X127610226Y-96986063D01*
X127466063Y-97130226D01*
X127352795Y-97299744D01*
X127274774Y-97488102D01*
X127235000Y-97688061D01*
X127235000Y-97792300D01*
X124993102Y-97792300D01*
X116351000Y-89150199D01*
X116351000Y-89088061D01*
X116313593Y-88900000D01*
X122121023Y-88900000D01*
X122124700Y-88937333D01*
X122124701Y-90037668D01*
X122121024Y-90075000D01*
X122124701Y-90112333D01*
X122135698Y-90223986D01*
X122146224Y-90258687D01*
X122179154Y-90367246D01*
X122249726Y-90499276D01*
X122290545Y-90549013D01*
X122344700Y-90615001D01*
X122362500Y-90629609D01*
X122362500Y-90689739D01*
X122402274Y-90889698D01*
X122480295Y-91078056D01*
X122593563Y-91247574D01*
X122737726Y-91391737D01*
X122907244Y-91505005D01*
X123095602Y-91583026D01*
X123295561Y-91622800D01*
X123357699Y-91622800D01*
X125971901Y-94237003D01*
X125995699Y-94266001D01*
X126024697Y-94289799D01*
X126111423Y-94360974D01*
X126243453Y-94431546D01*
X126386714Y-94475003D01*
X126498367Y-94486000D01*
X126498377Y-94486000D01*
X126535699Y-94489676D01*
X126573022Y-94486000D01*
X128673589Y-94486000D01*
X128717526Y-94529937D01*
X128887044Y-94643205D01*
X129075402Y-94721226D01*
X129275361Y-94761000D01*
X129479239Y-94761000D01*
X129679198Y-94721226D01*
X129867556Y-94643205D01*
X130037074Y-94529937D01*
X130181237Y-94385774D01*
X130294505Y-94216256D01*
X130372526Y-94027898D01*
X130412300Y-93827939D01*
X130412300Y-93624061D01*
X130372526Y-93424102D01*
X130294505Y-93235744D01*
X130181237Y-93066226D01*
X130037074Y-92922063D01*
X129867556Y-92808795D01*
X129679198Y-92730774D01*
X129479239Y-92691000D01*
X129275361Y-92691000D01*
X129075402Y-92730774D01*
X128887044Y-92808795D01*
X128717526Y-92922063D01*
X128673589Y-92966000D01*
X126850502Y-92966000D01*
X126352898Y-92468396D01*
X136565209Y-92468396D01*
X136642843Y-92717470D01*
X136906883Y-92843369D01*
X137190411Y-92915338D01*
X137482531Y-92930610D01*
X137772018Y-92888599D01*
X138047747Y-92790918D01*
X138185157Y-92717470D01*
X138262791Y-92468396D01*
X137414000Y-91619605D01*
X136565209Y-92468396D01*
X126352898Y-92468396D01*
X125461222Y-91576720D01*
X125618838Y-91511433D01*
X125774144Y-91615205D01*
X125962502Y-91693226D01*
X126162461Y-91733000D01*
X126366339Y-91733000D01*
X126566298Y-91693226D01*
X126695978Y-91639511D01*
X126715506Y-91655537D01*
X126825820Y-91714502D01*
X126945518Y-91750812D01*
X127070000Y-91763072D01*
X129470000Y-91763072D01*
X129594482Y-91750812D01*
X129706216Y-91716918D01*
X129908200Y-91918902D01*
X129931999Y-91947901D01*
X130047724Y-92042874D01*
X130179753Y-92113446D01*
X130323014Y-92156903D01*
X130434667Y-92167900D01*
X130434676Y-92167900D01*
X130471999Y-92171576D01*
X130509322Y-92167900D01*
X132699678Y-92167900D01*
X132737000Y-92171576D01*
X132774322Y-92167900D01*
X132774333Y-92167900D01*
X132885986Y-92156903D01*
X133029247Y-92113446D01*
X133161276Y-92042874D01*
X133277001Y-91947901D01*
X133300804Y-91918897D01*
X133711170Y-91508531D01*
X135923390Y-91508531D01*
X135965401Y-91798018D01*
X136063082Y-92073747D01*
X136136530Y-92211157D01*
X136385604Y-92288791D01*
X137234395Y-91440000D01*
X137593605Y-91440000D01*
X138442396Y-92288791D01*
X138691470Y-92211157D01*
X138817369Y-91947117D01*
X138889338Y-91663589D01*
X138904610Y-91371469D01*
X138862599Y-91081982D01*
X138764918Y-90806253D01*
X138691470Y-90668843D01*
X138442396Y-90591209D01*
X137593605Y-91440000D01*
X137234395Y-91440000D01*
X136385604Y-90591209D01*
X136136530Y-90668843D01*
X136010631Y-90932883D01*
X135938662Y-91216411D01*
X135923390Y-91508531D01*
X133711170Y-91508531D01*
X134075002Y-91144700D01*
X134137139Y-91144700D01*
X134337098Y-91104926D01*
X134525456Y-91026905D01*
X134694974Y-90913637D01*
X134839137Y-90769474D01*
X134952405Y-90599956D01*
X135030426Y-90411598D01*
X135070200Y-90211639D01*
X135070200Y-90007761D01*
X135030426Y-89807802D01*
X134952405Y-89619444D01*
X134839137Y-89449926D01*
X134694974Y-89305763D01*
X134525456Y-89192495D01*
X134337098Y-89114474D01*
X134137139Y-89074700D01*
X133933261Y-89074700D01*
X133733302Y-89114474D01*
X133544944Y-89192495D01*
X133375426Y-89305763D01*
X133231263Y-89449926D01*
X133117995Y-89619444D01*
X133039974Y-89807802D01*
X133000200Y-90007761D01*
X133000200Y-90069898D01*
X132422199Y-90647900D01*
X131765000Y-90647900D01*
X131765000Y-90537461D01*
X131725226Y-90337502D01*
X131647205Y-90149144D01*
X131533937Y-89979626D01*
X131389774Y-89835463D01*
X131284964Y-89765431D01*
X131270001Y-89747199D01*
X131241004Y-89723402D01*
X130051588Y-88533986D01*
X130059502Y-88519180D01*
X130095812Y-88399482D01*
X130108072Y-88275000D01*
X130108072Y-86675000D01*
X130095812Y-86550518D01*
X130059502Y-86430820D01*
X130000537Y-86320506D01*
X129921185Y-86223815D01*
X129824494Y-86144463D01*
X129714180Y-86085498D01*
X129594482Y-86049188D01*
X129470000Y-86036928D01*
X127070000Y-86036928D01*
X126945518Y-86049188D01*
X126825820Y-86085498D01*
X126715506Y-86144463D01*
X126618815Y-86223815D01*
X126539463Y-86320506D01*
X126480498Y-86430820D01*
X126444188Y-86550518D01*
X126431928Y-86675000D01*
X126431928Y-88275000D01*
X126444188Y-88399482D01*
X126480498Y-88519180D01*
X126539463Y-88629494D01*
X126618815Y-88726185D01*
X126715506Y-88805537D01*
X126825820Y-88864502D01*
X126942841Y-88900000D01*
X126825820Y-88935498D01*
X126715506Y-88994463D01*
X126624108Y-89069471D01*
X126575301Y-89009999D01*
X126459576Y-88915026D01*
X126348072Y-88855425D01*
X126348072Y-88700000D01*
X126335812Y-88575518D01*
X126335655Y-88575000D01*
X126335812Y-88574482D01*
X126348072Y-88450000D01*
X126348072Y-88050000D01*
X126335812Y-87925518D01*
X126299502Y-87805820D01*
X126240537Y-87695506D01*
X126161185Y-87598815D01*
X126064494Y-87519463D01*
X125954180Y-87460498D01*
X125834482Y-87424188D01*
X125710000Y-87411928D01*
X124710000Y-87411928D01*
X124585518Y-87424188D01*
X124465820Y-87460498D01*
X124458960Y-87464165D01*
X124442688Y-87455869D01*
X124322308Y-87421889D01*
X124197612Y-87412048D01*
X123995750Y-87415000D01*
X123837000Y-87573750D01*
X123837000Y-88061928D01*
X123583000Y-88061928D01*
X123583000Y-87573750D01*
X123424250Y-87415000D01*
X123222388Y-87412048D01*
X123097692Y-87421889D01*
X122977312Y-87455869D01*
X122865874Y-87512680D01*
X122767660Y-87590140D01*
X122686445Y-87685272D01*
X122625350Y-87794421D01*
X122586723Y-87913391D01*
X122575000Y-88018250D01*
X122679748Y-88122998D01*
X122575000Y-88122998D01*
X122575000Y-88203783D01*
X122460424Y-88265026D01*
X122344699Y-88359999D01*
X122249726Y-88475724D01*
X122179154Y-88607753D01*
X122135697Y-88751014D01*
X122121023Y-88900000D01*
X116313593Y-88900000D01*
X116311226Y-88888102D01*
X116233205Y-88699744D01*
X116119937Y-88530226D01*
X115975774Y-88386063D01*
X115806256Y-88272795D01*
X115617898Y-88194774D01*
X115417939Y-88155000D01*
X115214061Y-88155000D01*
X115014102Y-88194774D01*
X114825744Y-88272795D01*
X114656226Y-88386063D01*
X114512063Y-88530226D01*
X114398795Y-88699744D01*
X114320774Y-88888102D01*
X114281000Y-89088061D01*
X102260000Y-89088061D01*
X102260000Y-83852279D01*
X102281368Y-83634344D01*
X103525000Y-83634344D01*
X103525000Y-84005656D01*
X103597439Y-84369834D01*
X103739534Y-84712882D01*
X103945825Y-85021618D01*
X104208382Y-85284175D01*
X104517118Y-85490466D01*
X104860166Y-85632561D01*
X105224344Y-85705000D01*
X105595656Y-85705000D01*
X105959834Y-85632561D01*
X106255720Y-85510001D01*
X135925929Y-85510001D01*
X135925929Y-87209999D01*
X135938189Y-87334481D01*
X135974499Y-87454179D01*
X136033464Y-87564493D01*
X136112816Y-87661184D01*
X136209507Y-87740536D01*
X136319821Y-87799501D01*
X136392382Y-87821512D01*
X136260526Y-87953368D01*
X136098011Y-88196589D01*
X135986069Y-88466842D01*
X135929001Y-88753740D01*
X135929001Y-89046260D01*
X135986069Y-89333158D01*
X136098011Y-89603411D01*
X136260526Y-89846632D01*
X136467368Y-90053474D01*
X136640730Y-90169310D01*
X136565209Y-90411604D01*
X137414000Y-91260395D01*
X138262791Y-90411604D01*
X138187270Y-90169310D01*
X138360632Y-90053474D01*
X138567474Y-89846632D01*
X138729989Y-89603411D01*
X138841931Y-89333158D01*
X138898999Y-89046260D01*
X138898999Y-88753740D01*
X138841931Y-88466842D01*
X138729989Y-88196589D01*
X138567474Y-87953368D01*
X138435618Y-87821512D01*
X138508179Y-87799501D01*
X138618493Y-87740536D01*
X138715184Y-87661184D01*
X138794536Y-87564493D01*
X138853501Y-87454179D01*
X138889811Y-87334481D01*
X138902071Y-87209999D01*
X138902071Y-85510001D01*
X138889811Y-85385519D01*
X138853501Y-85265821D01*
X138794536Y-85155507D01*
X138715184Y-85058816D01*
X138618493Y-84979464D01*
X138508179Y-84920499D01*
X138388481Y-84884189D01*
X138263999Y-84871929D01*
X136564001Y-84871929D01*
X136439519Y-84884189D01*
X136319821Y-84920499D01*
X136209507Y-84979464D01*
X136112816Y-85058816D01*
X136033464Y-85155507D01*
X135974499Y-85265821D01*
X135938189Y-85385519D01*
X135925929Y-85510001D01*
X106255720Y-85510001D01*
X106302882Y-85490466D01*
X106611618Y-85284175D01*
X106874175Y-85021618D01*
X107080466Y-84712882D01*
X107222561Y-84369834D01*
X107295000Y-84005656D01*
X107295000Y-83634344D01*
X141625000Y-83634344D01*
X141625000Y-84005656D01*
X141697439Y-84369834D01*
X141839534Y-84712882D01*
X142045825Y-85021618D01*
X142308382Y-85284175D01*
X142617118Y-85490466D01*
X142960166Y-85632561D01*
X143324344Y-85705000D01*
X143695656Y-85705000D01*
X144059834Y-85632561D01*
X144402882Y-85490466D01*
X144711618Y-85284175D01*
X144974175Y-85021618D01*
X145180466Y-84712882D01*
X145322561Y-84369834D01*
X145395000Y-84005656D01*
X145395000Y-83634344D01*
X145322561Y-83270166D01*
X145180466Y-82927118D01*
X144974175Y-82618382D01*
X144711618Y-82355825D01*
X144402882Y-82149534D01*
X144059834Y-82007439D01*
X143695656Y-81935000D01*
X143324344Y-81935000D01*
X142960166Y-82007439D01*
X142617118Y-82149534D01*
X142308382Y-82355825D01*
X142045825Y-82618382D01*
X141839534Y-82927118D01*
X141697439Y-83270166D01*
X141625000Y-83634344D01*
X107295000Y-83634344D01*
X107222561Y-83270166D01*
X107080466Y-82927118D01*
X106874175Y-82618382D01*
X106611618Y-82355825D01*
X106302882Y-82149534D01*
X105959834Y-82007439D01*
X105595656Y-81935000D01*
X105224344Y-81935000D01*
X104860166Y-82007439D01*
X104517118Y-82149534D01*
X104208382Y-82355825D01*
X103945825Y-82618382D01*
X103739534Y-82927118D01*
X103597439Y-83270166D01*
X103525000Y-83634344D01*
X102281368Y-83634344D01*
X102323096Y-83208778D01*
X102500606Y-82620836D01*
X102788937Y-82078564D01*
X103177094Y-81602636D01*
X103650314Y-81211155D01*
X104190552Y-80919049D01*
X104777244Y-80737437D01*
X105418879Y-80670000D01*
X143477721Y-80670000D01*
X144121222Y-80733096D01*
G37*
X144121222Y-80733096D02*
X144709164Y-80910606D01*
X145251436Y-81198937D01*
X145727364Y-81587094D01*
X146118845Y-82060314D01*
X146410951Y-82600552D01*
X146592563Y-83187244D01*
X146660001Y-83828888D01*
X146660000Y-102837721D01*
X146596904Y-103481221D01*
X146419394Y-104069164D01*
X146131063Y-104611436D01*
X145742906Y-105087364D01*
X145269686Y-105478845D01*
X144729449Y-105770950D01*
X144142756Y-105952563D01*
X143501130Y-106020000D01*
X105442279Y-106020000D01*
X104798779Y-105956904D01*
X104210836Y-105779394D01*
X103668564Y-105491063D01*
X103192636Y-105102906D01*
X102801155Y-104629686D01*
X102509050Y-104089449D01*
X102327437Y-103502756D01*
X102260000Y-102861130D01*
X102260000Y-102684344D01*
X103525000Y-102684344D01*
X103525000Y-103055656D01*
X103597439Y-103419834D01*
X103739534Y-103762882D01*
X103945825Y-104071618D01*
X104208382Y-104334175D01*
X104517118Y-104540466D01*
X104860166Y-104682561D01*
X105224344Y-104755000D01*
X105595656Y-104755000D01*
X105959834Y-104682561D01*
X106302882Y-104540466D01*
X106611618Y-104334175D01*
X106874175Y-104071618D01*
X107080466Y-103762882D01*
X107222561Y-103419834D01*
X107295000Y-103055656D01*
X107295000Y-102684344D01*
X141625000Y-102684344D01*
X141625000Y-103055656D01*
X141697439Y-103419834D01*
X141839534Y-103762882D01*
X142045825Y-104071618D01*
X142308382Y-104334175D01*
X142617118Y-104540466D01*
X142960166Y-104682561D01*
X143324344Y-104755000D01*
X143695656Y-104755000D01*
X144059834Y-104682561D01*
X144402882Y-104540466D01*
X144711618Y-104334175D01*
X144974175Y-104071618D01*
X145180466Y-103762882D01*
X145322561Y-103419834D01*
X145395000Y-103055656D01*
X145395000Y-102684344D01*
X145322561Y-102320166D01*
X145180466Y-101977118D01*
X144974175Y-101668382D01*
X144711618Y-101405825D01*
X144402882Y-101199534D01*
X144059834Y-101057439D01*
X143695656Y-100985000D01*
X143324344Y-100985000D01*
X142960166Y-101057439D01*
X142617118Y-101199534D01*
X142308382Y-101405825D01*
X142045825Y-101668382D01*
X141839534Y-101977118D01*
X141697439Y-102320166D01*
X141625000Y-102684344D01*
X107295000Y-102684344D01*
X107222561Y-102320166D01*
X107080466Y-101977118D01*
X106874175Y-101668382D01*
X106611618Y-101405825D01*
X106302882Y-101199534D01*
X105959834Y-101057439D01*
X105595656Y-100985000D01*
X105224344Y-100985000D01*
X104860166Y-101057439D01*
X104517118Y-101199534D01*
X104208382Y-101405825D01*
X103945825Y-101668382D01*
X103739534Y-101977118D01*
X103597439Y-102320166D01*
X103525000Y-102684344D01*
X102260000Y-102684344D01*
X102260000Y-89088061D01*
X114281000Y-89088061D01*
X114281000Y-89291939D01*
X114320774Y-89491898D01*
X114398795Y-89680256D01*
X114512063Y-89849774D01*
X114656226Y-89993937D01*
X114825744Y-90107205D01*
X115014102Y-90185226D01*
X115214061Y-90225000D01*
X115276199Y-90225000D01*
X124114501Y-99063303D01*
X124138299Y-99092301D01*
X124254024Y-99187274D01*
X124386053Y-99257846D01*
X124529314Y-99301303D01*
X124640967Y-99312300D01*
X124640975Y-99312300D01*
X124678300Y-99315976D01*
X124715625Y-99312300D01*
X130947857Y-99312300D01*
X131045144Y-99377305D01*
X131233502Y-99455326D01*
X131433461Y-99495100D01*
X131637339Y-99495100D01*
X131837298Y-99455326D01*
X132025656Y-99377305D01*
X132195174Y-99264037D01*
X132339337Y-99119874D01*
X132452605Y-98950356D01*
X132530626Y-98761998D01*
X132570400Y-98562039D01*
X132570400Y-98358161D01*
X132530626Y-98158202D01*
X132452605Y-97969844D01*
X132339337Y-97800326D01*
X132195174Y-97656163D01*
X132025656Y-97542895D01*
X131837298Y-97464874D01*
X131637339Y-97425100D01*
X131433461Y-97425100D01*
X131233502Y-97464874D01*
X131045144Y-97542895D01*
X130875626Y-97656163D01*
X130739489Y-97792300D01*
X129519278Y-97792300D01*
X129906579Y-97405000D01*
X140431546Y-97405000D01*
X140479744Y-97437205D01*
X140668102Y-97515226D01*
X140868061Y-97555000D01*
X141071939Y-97555000D01*
X141271898Y-97515226D01*
X141460256Y-97437205D01*
X141629774Y-97323937D01*
X141773937Y-97179774D01*
X141887205Y-97010256D01*
X141965226Y-96821898D01*
X142005000Y-96621939D01*
X142005000Y-96418061D01*
X141965226Y-96218102D01*
X141887205Y-96029744D01*
X141773937Y-95860226D01*
X141629774Y-95716063D01*
X141460256Y-95602795D01*
X141271898Y-95524774D01*
X141071939Y-95485000D01*
X140868061Y-95485000D01*
X140668102Y-95524774D01*
X140479744Y-95602795D01*
X140431546Y-95635000D01*
X129583465Y-95635000D01*
X129539999Y-95630719D01*
X129496533Y-95635000D01*
X129496523Y-95635000D01*
X129366510Y-95647805D01*
X129199687Y-95698411D01*
X129045941Y-95780589D01*
X129045939Y-95780590D01*
X129045940Y-95780590D01*
X128944953Y-95863468D01*
X128944951Y-95863470D01*
X128911183Y-95891183D01*
X128883470Y-95924951D01*
X128024957Y-96783465D01*
X127968102Y-96794774D01*
X127779744Y-96872795D01*
X127610226Y-96986063D01*
X127466063Y-97130226D01*
X127352795Y-97299744D01*
X127274774Y-97488102D01*
X127235000Y-97688061D01*
X127235000Y-97792300D01*
X124993102Y-97792300D01*
X116351000Y-89150199D01*
X116351000Y-89088061D01*
X116313593Y-88900000D01*
X122121023Y-88900000D01*
X122124700Y-88937333D01*
X122124701Y-90037668D01*
X122121024Y-90075000D01*
X122124701Y-90112333D01*
X122135698Y-90223986D01*
X122146224Y-90258687D01*
X122179154Y-90367246D01*
X122249726Y-90499276D01*
X122290545Y-90549013D01*
X122344700Y-90615001D01*
X122362500Y-90629609D01*
X122362500Y-90689739D01*
X122402274Y-90889698D01*
X122480295Y-91078056D01*
X122593563Y-91247574D01*
X122737726Y-91391737D01*
X122907244Y-91505005D01*
X123095602Y-91583026D01*
X123295561Y-91622800D01*
X123357699Y-91622800D01*
X125971901Y-94237003D01*
X125995699Y-94266001D01*
X126024697Y-94289799D01*
X126111423Y-94360974D01*
X126243453Y-94431546D01*
X126386714Y-94475003D01*
X126498367Y-94486000D01*
X126498377Y-94486000D01*
X126535699Y-94489676D01*
X126573022Y-94486000D01*
X128673589Y-94486000D01*
X128717526Y-94529937D01*
X128887044Y-94643205D01*
X129075402Y-94721226D01*
X129275361Y-94761000D01*
X129479239Y-94761000D01*
X129679198Y-94721226D01*
X129867556Y-94643205D01*
X130037074Y-94529937D01*
X130181237Y-94385774D01*
X130294505Y-94216256D01*
X130372526Y-94027898D01*
X130412300Y-93827939D01*
X130412300Y-93624061D01*
X130372526Y-93424102D01*
X130294505Y-93235744D01*
X130181237Y-93066226D01*
X130037074Y-92922063D01*
X129867556Y-92808795D01*
X129679198Y-92730774D01*
X129479239Y-92691000D01*
X129275361Y-92691000D01*
X129075402Y-92730774D01*
X128887044Y-92808795D01*
X128717526Y-92922063D01*
X128673589Y-92966000D01*
X126850502Y-92966000D01*
X126352898Y-92468396D01*
X136565209Y-92468396D01*
X136642843Y-92717470D01*
X136906883Y-92843369D01*
X137190411Y-92915338D01*
X137482531Y-92930610D01*
X137772018Y-92888599D01*
X138047747Y-92790918D01*
X138185157Y-92717470D01*
X138262791Y-92468396D01*
X137414000Y-91619605D01*
X136565209Y-92468396D01*
X126352898Y-92468396D01*
X125461222Y-91576720D01*
X125618838Y-91511433D01*
X125774144Y-91615205D01*
X125962502Y-91693226D01*
X126162461Y-91733000D01*
X126366339Y-91733000D01*
X126566298Y-91693226D01*
X126695978Y-91639511D01*
X126715506Y-91655537D01*
X126825820Y-91714502D01*
X126945518Y-91750812D01*
X127070000Y-91763072D01*
X129470000Y-91763072D01*
X129594482Y-91750812D01*
X129706216Y-91716918D01*
X129908200Y-91918902D01*
X129931999Y-91947901D01*
X130047724Y-92042874D01*
X130179753Y-92113446D01*
X130323014Y-92156903D01*
X130434667Y-92167900D01*
X130434676Y-92167900D01*
X130471999Y-92171576D01*
X130509322Y-92167900D01*
X132699678Y-92167900D01*
X132737000Y-92171576D01*
X132774322Y-92167900D01*
X132774333Y-92167900D01*
X132885986Y-92156903D01*
X133029247Y-92113446D01*
X133161276Y-92042874D01*
X133277001Y-91947901D01*
X133300804Y-91918897D01*
X133711170Y-91508531D01*
X135923390Y-91508531D01*
X135965401Y-91798018D01*
X136063082Y-92073747D01*
X136136530Y-92211157D01*
X136385604Y-92288791D01*
X137234395Y-91440000D01*
X137593605Y-91440000D01*
X138442396Y-92288791D01*
X138691470Y-92211157D01*
X138817369Y-91947117D01*
X138889338Y-91663589D01*
X138904610Y-91371469D01*
X138862599Y-91081982D01*
X138764918Y-90806253D01*
X138691470Y-90668843D01*
X138442396Y-90591209D01*
X137593605Y-91440000D01*
X137234395Y-91440000D01*
X136385604Y-90591209D01*
X136136530Y-90668843D01*
X136010631Y-90932883D01*
X135938662Y-91216411D01*
X135923390Y-91508531D01*
X133711170Y-91508531D01*
X134075002Y-91144700D01*
X134137139Y-91144700D01*
X134337098Y-91104926D01*
X134525456Y-91026905D01*
X134694974Y-90913637D01*
X134839137Y-90769474D01*
X134952405Y-90599956D01*
X135030426Y-90411598D01*
X135070200Y-90211639D01*
X135070200Y-90007761D01*
X135030426Y-89807802D01*
X134952405Y-89619444D01*
X134839137Y-89449926D01*
X134694974Y-89305763D01*
X134525456Y-89192495D01*
X134337098Y-89114474D01*
X134137139Y-89074700D01*
X133933261Y-89074700D01*
X133733302Y-89114474D01*
X133544944Y-89192495D01*
X133375426Y-89305763D01*
X133231263Y-89449926D01*
X133117995Y-89619444D01*
X133039974Y-89807802D01*
X133000200Y-90007761D01*
X133000200Y-90069898D01*
X132422199Y-90647900D01*
X131765000Y-90647900D01*
X131765000Y-90537461D01*
X131725226Y-90337502D01*
X131647205Y-90149144D01*
X131533937Y-89979626D01*
X131389774Y-89835463D01*
X131284964Y-89765431D01*
X131270001Y-89747199D01*
X131241004Y-89723402D01*
X130051588Y-88533986D01*
X130059502Y-88519180D01*
X130095812Y-88399482D01*
X130108072Y-88275000D01*
X130108072Y-86675000D01*
X130095812Y-86550518D01*
X130059502Y-86430820D01*
X130000537Y-86320506D01*
X129921185Y-86223815D01*
X129824494Y-86144463D01*
X129714180Y-86085498D01*
X129594482Y-86049188D01*
X129470000Y-86036928D01*
X127070000Y-86036928D01*
X126945518Y-86049188D01*
X126825820Y-86085498D01*
X126715506Y-86144463D01*
X126618815Y-86223815D01*
X126539463Y-86320506D01*
X126480498Y-86430820D01*
X126444188Y-86550518D01*
X126431928Y-86675000D01*
X126431928Y-88275000D01*
X126444188Y-88399482D01*
X126480498Y-88519180D01*
X126539463Y-88629494D01*
X126618815Y-88726185D01*
X126715506Y-88805537D01*
X126825820Y-88864502D01*
X126942841Y-88900000D01*
X126825820Y-88935498D01*
X126715506Y-88994463D01*
X126624108Y-89069471D01*
X126575301Y-89009999D01*
X126459576Y-88915026D01*
X126348072Y-88855425D01*
X126348072Y-88700000D01*
X126335812Y-88575518D01*
X126335655Y-88575000D01*
X126335812Y-88574482D01*
X126348072Y-88450000D01*
X126348072Y-88050000D01*
X126335812Y-87925518D01*
X126299502Y-87805820D01*
X126240537Y-87695506D01*
X126161185Y-87598815D01*
X126064494Y-87519463D01*
X125954180Y-87460498D01*
X125834482Y-87424188D01*
X125710000Y-87411928D01*
X124710000Y-87411928D01*
X124585518Y-87424188D01*
X124465820Y-87460498D01*
X124458960Y-87464165D01*
X124442688Y-87455869D01*
X124322308Y-87421889D01*
X124197612Y-87412048D01*
X123995750Y-87415000D01*
X123837000Y-87573750D01*
X123837000Y-88061928D01*
X123583000Y-88061928D01*
X123583000Y-87573750D01*
X123424250Y-87415000D01*
X123222388Y-87412048D01*
X123097692Y-87421889D01*
X122977312Y-87455869D01*
X122865874Y-87512680D01*
X122767660Y-87590140D01*
X122686445Y-87685272D01*
X122625350Y-87794421D01*
X122586723Y-87913391D01*
X122575000Y-88018250D01*
X122679748Y-88122998D01*
X122575000Y-88122998D01*
X122575000Y-88203783D01*
X122460424Y-88265026D01*
X122344699Y-88359999D01*
X122249726Y-88475724D01*
X122179154Y-88607753D01*
X122135697Y-88751014D01*
X122121023Y-88900000D01*
X116313593Y-88900000D01*
X116311226Y-88888102D01*
X116233205Y-88699744D01*
X116119937Y-88530226D01*
X115975774Y-88386063D01*
X115806256Y-88272795D01*
X115617898Y-88194774D01*
X115417939Y-88155000D01*
X115214061Y-88155000D01*
X115014102Y-88194774D01*
X114825744Y-88272795D01*
X114656226Y-88386063D01*
X114512063Y-88530226D01*
X114398795Y-88699744D01*
X114320774Y-88888102D01*
X114281000Y-89088061D01*
X102260000Y-89088061D01*
X102260000Y-83852279D01*
X102281368Y-83634344D01*
X103525000Y-83634344D01*
X103525000Y-84005656D01*
X103597439Y-84369834D01*
X103739534Y-84712882D01*
X103945825Y-85021618D01*
X104208382Y-85284175D01*
X104517118Y-85490466D01*
X104860166Y-85632561D01*
X105224344Y-85705000D01*
X105595656Y-85705000D01*
X105959834Y-85632561D01*
X106255720Y-85510001D01*
X135925929Y-85510001D01*
X135925929Y-87209999D01*
X135938189Y-87334481D01*
X135974499Y-87454179D01*
X136033464Y-87564493D01*
X136112816Y-87661184D01*
X136209507Y-87740536D01*
X136319821Y-87799501D01*
X136392382Y-87821512D01*
X136260526Y-87953368D01*
X136098011Y-88196589D01*
X135986069Y-88466842D01*
X135929001Y-88753740D01*
X135929001Y-89046260D01*
X135986069Y-89333158D01*
X136098011Y-89603411D01*
X136260526Y-89846632D01*
X136467368Y-90053474D01*
X136640730Y-90169310D01*
X136565209Y-90411604D01*
X137414000Y-91260395D01*
X138262791Y-90411604D01*
X138187270Y-90169310D01*
X138360632Y-90053474D01*
X138567474Y-89846632D01*
X138729989Y-89603411D01*
X138841931Y-89333158D01*
X138898999Y-89046260D01*
X138898999Y-88753740D01*
X138841931Y-88466842D01*
X138729989Y-88196589D01*
X138567474Y-87953368D01*
X138435618Y-87821512D01*
X138508179Y-87799501D01*
X138618493Y-87740536D01*
X138715184Y-87661184D01*
X138794536Y-87564493D01*
X138853501Y-87454179D01*
X138889811Y-87334481D01*
X138902071Y-87209999D01*
X138902071Y-85510001D01*
X138889811Y-85385519D01*
X138853501Y-85265821D01*
X138794536Y-85155507D01*
X138715184Y-85058816D01*
X138618493Y-84979464D01*
X138508179Y-84920499D01*
X138388481Y-84884189D01*
X138263999Y-84871929D01*
X136564001Y-84871929D01*
X136439519Y-84884189D01*
X136319821Y-84920499D01*
X136209507Y-84979464D01*
X136112816Y-85058816D01*
X136033464Y-85155507D01*
X135974499Y-85265821D01*
X135938189Y-85385519D01*
X135925929Y-85510001D01*
X106255720Y-85510001D01*
X106302882Y-85490466D01*
X106611618Y-85284175D01*
X106874175Y-85021618D01*
X107080466Y-84712882D01*
X107222561Y-84369834D01*
X107295000Y-84005656D01*
X107295000Y-83634344D01*
X141625000Y-83634344D01*
X141625000Y-84005656D01*
X141697439Y-84369834D01*
X141839534Y-84712882D01*
X142045825Y-85021618D01*
X142308382Y-85284175D01*
X142617118Y-85490466D01*
X142960166Y-85632561D01*
X143324344Y-85705000D01*
X143695656Y-85705000D01*
X144059834Y-85632561D01*
X144402882Y-85490466D01*
X144711618Y-85284175D01*
X144974175Y-85021618D01*
X145180466Y-84712882D01*
X145322561Y-84369834D01*
X145395000Y-84005656D01*
X145395000Y-83634344D01*
X145322561Y-83270166D01*
X145180466Y-82927118D01*
X144974175Y-82618382D01*
X144711618Y-82355825D01*
X144402882Y-82149534D01*
X144059834Y-82007439D01*
X143695656Y-81935000D01*
X143324344Y-81935000D01*
X142960166Y-82007439D01*
X142617118Y-82149534D01*
X142308382Y-82355825D01*
X142045825Y-82618382D01*
X141839534Y-82927118D01*
X141697439Y-83270166D01*
X141625000Y-83634344D01*
X107295000Y-83634344D01*
X107222561Y-83270166D01*
X107080466Y-82927118D01*
X106874175Y-82618382D01*
X106611618Y-82355825D01*
X106302882Y-82149534D01*
X105959834Y-82007439D01*
X105595656Y-81935000D01*
X105224344Y-81935000D01*
X104860166Y-82007439D01*
X104517118Y-82149534D01*
X104208382Y-82355825D01*
X103945825Y-82618382D01*
X103739534Y-82927118D01*
X103597439Y-83270166D01*
X103525000Y-83634344D01*
X102281368Y-83634344D01*
X102323096Y-83208778D01*
X102500606Y-82620836D01*
X102788937Y-82078564D01*
X103177094Y-81602636D01*
X103650314Y-81211155D01*
X104190552Y-80919049D01*
X104777244Y-80737437D01*
X105418879Y-80670000D01*
X143477721Y-80670000D01*
X144121222Y-80733096D01*
%TD*%
M02*
